<svg fill="none" height="36" viewBox="0 0 29 36" width="29" xmlns="http://www.w3.org/2000/svg"><path d="m.431213 26.5714h5.877737c.19395 0 .36414-.1302.4156-.3156l6.97415-25.715297c.0752-.272224-.1306-.540503-.4156-.540503h-5.88172c-.19395 0-.36415.130194-.4156.315622l-6.9701642 25.715278c-.0752033.2723.1306162.5405.4155972.5405z" fill="#0090cf"/><path d="m6.43121 35.9999h5.88169c.194 0 .3642-.1302.4156-.3156l6.9702-25.71541c.0752-.27218-.1306-.54042-.4156-.54042h-5.8817c-.194 0-.3642.13017-.4156.31557l-6.97018 25.71146c-.07521.2722.13061.5405.41559.5405z" fill="#114880"/><path d="m17.5821 26.5713h5.9909c.1976 0 .3709-.1363.4234-.3304l4.2734-16.24651c.0766-.28503-.133-.56592-.4233-.56592h-5.9909c-.1976 0-.3709.13631-.4233.33046l-4.2735 16.24647c-.0766.285.133.5659.4233.5659z" fill="#0090cf"/></svg>