<svg viewBox="0 0 601.97 159" xmlns="http://www.w3.org/2000/svg"><path d="m1.86 114.91h25.34c.84 0 1.57-.56 1.79-1.37l30.05-111.2c.32-1.18-.57-2.34-1.79-2.34h-25.35c-.84 0-1.57.56-1.79 1.37l-30.04 111.2c-.32 1.18.57 2.34 1.79 2.34z" fill="#114880"/><path d="m26.95 159h25.35c.84 0 1.57-.56 1.79-1.37l30.05-111.2c.32-1.18-.57-2.34-1.79-2.34h-25.35c-.84 0-1.57.56-1.79 1.37l-30.05 111.2c-.32 1.18.57 2.34 1.79 2.34z" fill="#078fcf"/><path d="m75.96 114.91h25.35c.84 0 1.57-.56 1.79-1.37l18.08-67.11c.32-1.18-.57-2.34-1.79-2.34h-25.35c-.84 0-1.57.56-1.79 1.37l-18.08 67.11c-.32 1.18.57 2.34 1.79 2.34z" fill="#114880"/><path d="m127.17 114.91h455.43c1.26 0 2.36-.84 2.69-2.06l16.58-65.25c.48-1.77-.86-3.51-2.69-3.51h-454.42c-1.26 0-2.36.84-2.69 2.06l-17.58 65.25c-.48 1.77.86 3.51 2.69 3.51z" fill="#114880"/><g fill="#fff"><path d="m577.57 96.02c0 1.69-1.33 3.02-3.06 3.02s-3.08-1.33-3.08-3.02 1.37-2.99 3.08-2.99 3.06 1.33 3.06 2.99zm-5.37 0c0 1.33.98 2.39 2.33 2.39s2.28-1.06 2.28-2.37-.97-2.4-2.29-2.4-2.31 1.07-2.31 2.39zm1.84 1.57h-.69v-2.99c.27-.05.66-.09 1.15-.09.56 0 .82.09 1.04.22.16.13.29.36.29.66 0 .33-.25.58-.62.69v.04c.29.11.46.33.55.73.09.46.15.64.22.75h-.75c-.09-.11-.15-.38-.24-.73-.05-.33-.24-.47-.62-.47h-.33v1.2zm.02-1.69h.33c.38 0 .69-.13.69-.44 0-.27-.2-.46-.64-.46-.18 0-.31.02-.38.04z"/><path d="m159.03 59.96h17.31c12 0 14.91 4.41 14.91 9.21s-3.18 8.71-9.16 10.27c3.69.95 6.36 3.68 6.36 7.71 0 6.59-5.25 11.89-18.65 11.89h-21.27zm11.17 29.2c3.18 0 5.08-1.4 5.08-3.35 0-1.68-1.4-2.46-4.19-2.46h-5.64l-1.56 5.81zm3.46-13.85c3.35 0 4.86-1.51 4.86-3.18s-1.23-2.29-4.02-2.29h-5.42l-1.45 5.47z"/><path d="m200.5 59.96h33.33l-2.9 10.72h-20.49l-1.06 3.96h20.55l-2.51 9.44h-20.55l-1.17 4.24h20.77l-2.85 10.72h-33.61l10.5-39.08z"/><path d="m239.79 59.96h12.9l4.69 13.73 12.06-13.73h14.35l-10.5 39.08h-13.01l5.19-19.37-12.73 13.9h-.22l-5.25-13.9-5.19 19.37h-12.79z"/><path d="m299.2 59.96h13.12c7.2 0 11.61 1.4 14.52 4.3 2.07 2.07 3.07 4.8 3.07 7.87 0 9.77-7.37 16.3-19.76 16.3h-5.53l-2.85 10.61h-13.06l10.5-39.08zm10.27 19.15c4.97 0 7.26-2.23 7.26-5.19 0-.84-.34-1.67-.95-2.29-.89-.89-2.46-1.23-3.91-1.23h-2.46l-2.29 8.71z"/><path d="m338.05 59.96h15.24c7.2 0 11.78 1.56 14.4 4.19 2.18 2.18 3.07 5.08 3.07 8.15 0 6.09-3.18 11.33-10.89 13.73l5.42 13.01h-14.07l-4.35-11.17h-3.24l-3.02 11.17h-13.06zm12.79 18.59c4.35 0 6.64-2.01 6.64-4.47 0-.78-.28-1.51-.84-2.07-.73-.73-2.01-1.12-3.85-1.12h-4.63l-2.07 7.65h4.75z"/><path d="m372.65 82.12c0-12.12 9.88-22.95 23-22.95 11.5 0 19.43 7.71 19.43 17.7 0 12.12-9.88 22.95-23 22.95-11.5 0-19.43-7.71-19.43-17.7zm29.31-4.08c0-4.13-2.51-7.37-7.2-7.37-5.47 0-8.99 5.36-8.99 10.27 0 4.13 2.51 7.37 7.2 7.37 5.47 0 8.99-5.36 8.99-10.27z"/><path d="m429.14 71.01h-11.5l2.96-11.06h36.07l-2.96 11.06h-11.5l-7.54 28.03h-13.06l7.54-28.03z"/><path d="m461.24 59.96h33.33l-2.9 10.72h-20.49l-1.06 3.96h20.13l-2.51 9.44h-20.13l-1.17 4.24h20.77l-2.85 10.72h-33.61l10.5-39.08z"/><path d="m493.33 82.46c0-12.79 10.05-23.34 25.79-23.34 7.37 0 13.68 3.18 16.36 6.48l-8.15 8.37c-2.23-2.07-5.58-3.52-9.04-3.52-7.43 0-11.84 5.08-11.84 11.39 0 4.86 3.52 7.26 7.59 7.26 1.4 0 2.51-.22 3.41-.61l1.28-4.19h-6.42l2.12-8.37h18.82l-5.58 19.93c-3.85 2.29-9.38 4.02-15.02 4.02-9.71 0-19.32-5.14-19.32-17.42z"/><path d="m543.23 59.96h33.33l-2.9 10.72h-20.49l-1.06 3.96h20.58l-2.51 9.44h-20.58l-1.17 4.24h20.77l-2.85 10.72h-33.61l10.5-39.08z"/></g></svg>